<svg width="24" height="24" viewBox="0 0 24 24" fill="none" xmlns="http://www.w3.org/2000/svg">
<path d="M18 11.415L14.083 7.5L10.083 12.5L7 9.415L5.414 11H2V20C2 20.5304 2.21071 21.0391 2.58579 21.4142C2.96086 21.7893 3.46957 22 4 22H20C20.5304 22 21.0391 21.7893 21.4142 21.4142C21.7893 21.0391 22 20.5304 22 20V9H20.414L18 11.415ZM7 20H5V17H7V20ZM11 20H9V15H11V20ZM15 20H13V17H15V20ZM19 20H17V15H19V20Z" fill="black"/>
<path d="M20 2H4C3.46957 2 2.96086 2.21071 2.58579 2.58579C2.21071 2.96086 2 3.46957 2 4V9H4.586L7 6.586L9.917 9.5L13.917 4.5L18 8.586L19.586 7H22V4C22 3.46957 21.7893 2.96086 21.4142 2.58579C21.0391 2.21071 20.5304 2 20 2Z" fill="black"/>
</svg>
