<svg width="24" height="24" viewBox="0 0 24 24" fill="none" xmlns="http://www.w3.org/2000/svg">
<g clip-path="url(#clip0_123_531)">
<path fill-rule="evenodd" clip-rule="evenodd" d="M19 0C19.5523 0 20 0.447715 20 1V7C20 7.55228 19.5523 8 19 8H1C0.447716 8 0 7.55228 0 7V1C0 0.447715 0.447716 0 1 0H19ZM10.7084 10C9.04751 11.4659 8 13.6106 8 16C8 16.6906 8.08751 17.3608 8.25204 18H1C0.447716 18 0 17.5523 0 17V11C0 10.4477 0.447716 10 1 10H10.7084ZM4 5C3.44772 5 3 4.55228 3 4C3 3.44772 3.44772 3 4 3C4.55228 3 5 3.44772 5 4C5 4.55228 4.55228 5 4 5ZM10 3H17V5H10V3ZM3 14C3 14.5523 3.44772 15 4 15C4.55228 15 5 14.5523 5 14C5 13.4477 4.55228 13 4 13C3.44772 13 3 13.4477 3 14ZM16 12C13.7909 12 12 13.7909 12 16C12 18.2091 13.7909 20 16 20C18.2091 20 20 18.2091 20 16C20 13.7909 18.2091 12 16 12ZM10 16C10 12.6863 12.6863 10 16 10C19.3137 10 22 12.6863 22 16C22 17.2958 21.5892 18.4957 20.8907 19.4765L23.7071 22.2929L22.2929 23.7071L19.4765 20.8907C18.4957 21.5892 17.2958 22 16 22C12.6863 22 10 19.3137 10 16Z" fill="black"/>
</g>
<defs>
<clipPath id="clip0_123_531">
<rect width="24" height="24" fill="white"/>
</clipPath>
</defs>
</svg>
