<svg width="16" height="16" viewBox="0 0 16 16" fill="none" xmlns="http://www.w3.org/2000/svg">
<path d="M3.58007 1.12496C3.66324 1.19744 3.72011 1.29538 3.74181 1.40354C3.76352 1.5117 3.74884 1.62401 3.70007 1.72296C3.69119 1.75213 3.68681 1.78247 3.68707 1.81296C3.68707 1.87596 3.70307 1.99596 3.85407 2.14596C3.92707 2.21896 3.98307 2.27096 4.04407 2.32796C4.09407 2.37396 4.14707 2.42196 4.21407 2.48796C4.34407 2.61196 4.48107 2.75796 4.60407 2.94096C4.85907 3.32396 5.00007 3.80296 5.00007 4.49996C5.00007 4.88196 4.93707 5.23996 4.82207 5.55696C4.49607 6.45696 3.76307 6.99996 3.00007 6.99996C2.23707 6.99996 1.50407 6.45596 1.17807 5.55696C1.05782 5.21764 0.997582 4.85996 1.00007 4.49996C1.00007 4.17396 1.08707 3.78496 1.20707 3.42596C1.32707 3.06696 1.49507 2.69396 1.68907 2.39396C1.92007 2.00396 2.24507 1.67696 2.49707 1.45696C2.63574 1.33606 2.77989 1.22161 2.92907 1.11396L2.95907 1.09396L2.96807 1.08696L2.97107 1.08496L2.97307 1.08396C3.06477 1.02284 3.17409 0.993719 3.28404 1.00113C3.39399 1.00855 3.49841 1.05208 3.58107 1.12496M3.00007 7.99996C3.63524 8.00157 4.25064 7.77921 4.73807 7.37196C4.75807 7.43463 4.77707 7.49796 4.79507 7.56196C5.00007 8.31396 5.00007 9.24396 5.00007 9.96296V9.99996C5.00007 12.058 4.61507 13.28 4.17907 14.007C4.01388 14.2929 3.79763 14.5461 3.54107 14.754C3.43902 14.8329 3.32831 14.9 3.21107 14.954C3.21107 14.954 3.08407 15 3.00007 15C2.92798 14.9942 2.85701 14.9788 2.78907 14.954C2.67184 14.9 2.56113 14.8329 2.45907 14.754C2.20252 14.5461 1.98627 14.2929 1.82107 14.007C1.38507 13.281 1.00007 12.058 1.00007 9.99996V9.96396C1.00007 9.24396 1.00007 8.31496 1.20507 7.56096C1.22241 7.49829 1.24141 7.43496 1.26207 7.37096C1.74909 7.77929 2.36453 8.00273 3.00007 8.00196M6.99807 10.975C6.65145 10.9363 6.31049 10.8574 5.98207 10.74C5.99407 10.488 6.00007 10.228 6.00007 9.95996V9.66396C6.31007 9.81096 6.64607 9.91396 6.99807 9.96396V7.99996C6.99807 7.46953 7.20879 6.96082 7.58386 6.58575C7.95893 6.21067 8.46764 5.99996 8.99807 5.99996H10.9631C10.8835 5.44705 10.6728 4.92121 10.3485 4.46639C10.0242 4.01157 9.59577 3.64097 9.09897 3.38558C8.60218 3.13018 8.05147 2.9974 7.49287 2.99834C6.93427 2.99927 6.38401 3.1339 5.88807 3.39096C5.80952 3.06404 5.67993 2.75154 5.50407 2.46496C6.1522 2.14464 6.86796 1.9852 7.59077 2.00013C8.31357 2.01506 9.02214 2.20392 9.65649 2.55072C10.2908 2.89752 10.8323 3.39206 11.235 3.99246C11.6377 4.59287 11.8899 5.28146 11.9701 5.99996H12.9971C13.5275 5.99996 14.0362 6.21067 14.4113 6.58575C14.7864 6.96082 14.9971 7.46953 14.9971 7.99996V12C14.9971 12.5304 14.7864 13.0391 14.4113 13.4142C14.0362 13.7892 13.5275 14 12.9971 14H8.99707C8.46664 14 7.95793 13.7892 7.58286 13.4142C7.20779 13.0391 6.99707 12.5304 6.99707 12L6.99807 10.975ZM11.9711 6.99996C11.8578 8.01469 11.4028 8.96074 10.6808 9.68272C9.95885 10.4047 9.01281 10.8597 7.99807 10.973V12C7.99807 12.2652 8.10343 12.5195 8.29097 12.7071C8.4785 12.8946 8.73286 13 8.99807 13H12.9981C13.2633 13 13.5176 12.8946 13.7052 12.7071C13.8927 12.5195 13.9981 12.2652 13.9981 12V7.99996C13.9981 7.73474 13.8927 7.48039 13.7052 7.29285C13.5176 7.10532 13.2633 6.99996 12.9981 6.99996H11.9711ZM10.9631 6.99996H8.99807C8.73286 6.99996 8.4785 7.10532 8.29097 7.29285C8.10343 7.48039 7.99807 7.73474 7.99807 7.99996V9.96496C8.74618 9.85715 9.43928 9.51007 9.97373 8.97562C10.5082 8.44117 10.8553 7.74806 10.9631 6.99996Z" fill="black"/>
</svg>
