<svg width="24" height="24" viewBox="0 0 24 24" fill="none" xmlns="http://www.w3.org/2000/svg">
<path d="M20 2H4C3.46957 2 2.96086 2.21071 2.58579 2.58579C2.21071 2.96086 2 3.46957 2 4V6H22V4C22 3.46957 21.7893 2.96086 21.4142 2.58579C21.0391 2.21071 20.5304 2 20 2ZM6 5C5.80222 5 5.60888 4.94135 5.44443 4.83147C5.27998 4.72159 5.15181 4.56541 5.07612 4.38268C5.00043 4.19996 4.98063 3.99889 5.01921 3.80491C5.0578 3.61093 5.15304 3.43275 5.29289 3.29289C5.43275 3.15304 5.61093 3.0578 5.80491 3.01921C5.99889 2.98063 6.19996 3.00043 6.38268 3.07612C6.56541 3.15181 6.72159 3.27998 6.83147 3.44443C6.94135 3.60888 7 3.80222 7 4C7 4.26522 6.89464 4.51957 6.70711 4.70711C6.51957 4.89464 6.26522 5 6 5ZM9 5C8.80222 5 8.60888 4.94135 8.44443 4.83147C8.27998 4.72159 8.15181 4.56541 8.07612 4.38268C8.00043 4.19996 7.98063 3.99889 8.01921 3.80491C8.0578 3.61093 8.15304 3.43275 8.29289 3.29289C8.43275 3.15304 8.61093 3.0578 8.80491 3.01921C8.99889 2.98063 9.19996 3.00043 9.38268 3.07612C9.56541 3.15181 9.72159 3.27998 9.83147 3.44443C9.94135 3.60888 10 3.80222 10 4C10 4.26522 9.89464 4.51957 9.70711 4.70711C9.51957 4.89464 9.26522 5 9 5ZM2 20C2 20.5304 2.21071 21.0391 2.58579 21.4142C2.96086 21.7893 3.46957 22 4 22H20C20.5304 22 21.0391 21.7893 21.4142 21.4142C21.7893 21.0391 22 20.5304 22 20V7H2V20ZM18 18H13V16H18V18ZM8 15C8.17322 15.0024 8.34537 15.0276 8.512 15.075L12.075 11.511C12.0276 11.3447 12.0024 11.1729 12 11C12 10.6044 12.1173 10.2178 12.3371 9.88886C12.5568 9.55996 12.8692 9.30362 13.2346 9.15224C13.6001 9.00087 14.0022 8.96126 14.3902 9.03843C14.7781 9.1156 15.1345 9.30608 15.4142 9.58579C15.6939 9.86549 15.8844 10.2219 15.9616 10.6098C16.0387 10.9978 15.9991 11.3999 15.8478 11.7654C15.6964 12.1308 15.44 12.4432 15.1111 12.6629C14.7822 12.8827 14.3956 13 14 13C13.8268 12.9976 13.6546 12.9724 13.488 12.925L9.925 16.489C9.97236 16.6553 9.99758 16.8271 10 17C10 17.3956 9.8827 17.7822 9.66294 18.1111C9.44318 18.44 9.13082 18.6964 8.76537 18.8478C8.39991 18.9991 7.99778 19.0387 7.60982 18.9616C7.22186 18.8844 6.86549 18.6939 6.58579 18.4142C6.30608 18.1345 6.1156 17.7781 6.03843 17.3902C5.96126 17.0022 6.00087 16.6001 6.15224 16.2346C6.30362 15.8692 6.55996 15.5568 6.88886 15.3371C7.21776 15.1173 7.60444 15 8 15Z" fill="black"/>
</svg>
